<?xml version="1.0" encoding="UTF-8"?>
<svg xmlns="http://www.w3.org/2000/svg" version="1.1" viewBox="0 0 155.9 156.7">
  <defs>
    <style>
      .cls-1 {
        fill: #f7dea6;
      }
    </style>
  </defs>
  <!-- Generator: Adobe Illustrator 28.6.0, SVG Export Plug-In . SVG Version: 1.2.0 Build 709)  -->
  <g>
    <g id="_레이어_2">
      <g id="_레이어_1-2">
        <g>
          <path class="cls-1" d="M155.9,78.6c0,38.1-27.4,71-65.3,77-30.2,4.8-55.5-5.1-74.6-29.2C7.3,115.4,2.5,102.5.7,88.5c-2.6-20.5,1.8-39.3,13.8-56C28.2,13.7,46.6,2.8,69.9.4c41.5-4.3,77.8,24.8,84.6,64.9.7,4.4,1,8.8,1.4,13.2h0ZM151.4,90.1c5.1-31.8-11.3-63.8-39.9-78.6C83.1-3.2,48.6,2.1,25.6,24.6c-11.7,11.4-18.8,25.2-21.5,41.3-1.2,6.9-1.4,13.9-.2,21.4,6.9-6.2,13.3-12,19.6-17.7.5.2.7.2.8.3,5.9,5.8,11.8,11.6,17.7,17.4.5.5,1.2,1,.5,1.8-.6.8-1.2.2-1.8-.2-.3-.3-.7-.5-1-.8-3.8-3.2-7.7-6.4-11.5-9.5-.6-.5-1.3-1-2.1-1.7-2.4,3.8-4.7,7.3-7,10.9-.1,0-.3-.1-.4-.2,1.1-3.7,2.2-7.4,3.2-11.2-1.1.3-1.8.7-2.5,1.3-4,3.3-8,6.5-11.9,9.9-3.9,3.4-3.5,2-2.5,7.2.6,3,1.5,5.8,2.4,9.1,9.9-5.4,19.5-10.6,29.2-15.9,1.6,1.4,3.2,2.8,5,4.2,12.2-9.2,24.2-18.3,36.2-27.4,6.2,5.9,12.2,11.6,18.2,17.4,6,5.7,12,11.4,18,17.1,2.3-1.7,4.2-3.1,6.2-4.5,1.9-1.3,1.9-1.3,3.9,0,6.7,4.1,13.4,8.2,20.1,12.3.6.4,1.3.7,2.1,1.1.3-.5.6-.9.7-1.3,1.2-3.8,2.3-7.7,3.5-11.5.5-1.6.1-2.7-1.2-3.8-5.6-4.7-11.1-9.6-16.6-14.4-.3-.3-.7-.5-1.5-1,2.2,6.2,4.1,11.8,6.1,17.4l-.6.3c-3.6-5.6-7.3-11.2-11-16.9-5.8,4.9-11.3,9.7-17,14.5-.5-.3-.9-.6-1.2-.8-.2-.2-.4-.5-.7-1,7.4-6.7,14.8-13.3,22.3-20,7.4,6.9,14.7,13.6,22.3,20.7h0ZM20.8,127.2c9.7,11.2,21.2,18.8,35,23,16.3,5,32.5,4.5,48.5-1.6,10.8-4.1,20.1-10.4,28.1-18.9-9.5-6.3-18.7-12.3-28-18.4-7,5.9-13.8,11.7-20.8,17.6-9-8-17.8-15.8-26.6-23.7-12.1,7.3-24,14.6-36.2,22h0ZM113.7,103.5c-5-4.7-9.8-9.3-14.7-13.9-4.8-4.5-9.4-9.2-14.6-13.5,2.9,7.4,6,14.6,8.8,22-.2,0-.4.2-.6.3-4.2-6.8-8.4-13.6-12.8-20.6-3.7,6.4-6.7,12.8-10.7,18.7.8-4.3,1.9-8.5,3-12.7,1.1-4.1,2.4-8.2,2.7-12.6-11.2,8.3-22.3,16.6-33.5,24.9-1.8-1.5-3.5-2.8-5-4-9.2,5-18.3,9.9-27.5,14.8,2.5,6.4,5.6,12.2,9.9,17.5,13-7.9,25.8-15.7,38.5-23.5,8.9,7.9,17.5,15.7,26.3,23.5,7-6,13.8-11.7,20.6-17.5,10.2,6.8,20.3,13.6,30.4,20,3.8-3.9,8.7-11.6,10.2-15.7-7.5-4.6-15-9.1-22.6-13.8-2.7,1.9-5.5,3.9-8.4,6h0Z"/>
          <path class="cls-1" d="M85.9,32.6c-1.5,1.6-2.9,3.1-4.7,5,5.5.4,10.4.8,15.3,1.2v.5c-2.4.2-4.8.4-7.2.6-2.5.2-5,.4-8,.6,1.3,1.4,2.1,2.3,3,3.3.3.4.7.8,1.1,1.1.4.5.8,1.1,0,1.5-.3.2-1,0-1.3-.2-.8-.6-1.6-1.4-2.3-2.1-.6-.5-1.2-1-2.2-1.7-.5,4.2-.9,8.1-1.3,12h-.6c-.4-3.9-.8-7.8-1.2-12.3-2.1,1.8-3.8,3.2-5.5,4.5-1.3-.5-1.3-1.2-.5-2,1.2-1.2,2.4-2.5,3.9-4-5.1-.9-9.9-.8-14.7-1.7,4.6-.9,9.4-1,14.7-1.5-1.8-1.9-3.1-3.4-4.6-5,.7-1.2,1.3-1.3,2.2-.3,1.3,1.3,2.6,2.4,4.5,4.1.4-5,.8-9.3,1.2-13.6,1.4,4.1,1.2,8.4,2.2,12.9,1.5-1.3,2.8-2.5,4.1-3.6.8-.8,1.5-.8,2.1.6h0Z"/>
          <path class="cls-1" d="M41.7,70.1c1.5,3.1,3,6.2,4.5,9.2-3.2-3.1-5.8-6.7-8.8-10.4-1.5,2.2-2.9,4.1-4.5,6.5-.3-3.1,1.1-5.4,1.2-8.3-2,1.4-3.8,2.7-5.7,4-.3-.2-.6-.3-.9-.5-.2-.2-.4-.5-.9-1.1,3.2-2.8,6.3-5.7,9.6-8.6,7,5.9,13.8,11.6,20.6,17.3-.7,1.4-1.5,1.5-2.6.7-3.4-2.6-6.8-5.1-10.3-7.7-.7-.5-1.4-1-2.1-1.5-.1,0-.2.2-.4.2h0Z"/>
          <path class="cls-1" d="M113.8,62.7c3.3,3.2,6.4,6.2,9.6,9.3-1.4,1.6-1.4,1.7-2.7.7-1.7-1.3-3.4-2.7-5.5-3.8.5,2.5,1.1,4.9,1.6,7.4-.2,0-.3.2-.5.2-1.7-2.4-3.4-4.8-5.2-7.3-.7.5-1.3.9-1.9,1.4-3.4,2.7-6.8,5.5-10.2,8.2-.5.4-.9.9-1.5,1.1-.5.1-1.2,0-1.6-.3-.2-.2-.1-.9,0-1.3.2-.4.6-.6.9-.9,5.3-4.7,10.6-9.4,15.9-14.1.2-.2.4-.3,1-.6h0Z"/>
          <path class="cls-1" d="M44.2,38.7c-.5.5-.9.8-1.3,1.3-.4-.2-1-.6-1.8-1.1.6-.5,1.2-.9,1.8-1.3.4.4.9.8,1.3,1.2h0Z"/>
          <path class="cls-1" d="M78,11.9c.6.4,1.1.8,1.7,1.3-.5.4-1,.8-1.6,1.3-.4-.4-.9-.8-1.5-1.3.5-.5,1-.9,1.4-1.3Z"/>
          <path class="cls-1" d="M110.1,38.9c.6-.5,1.1-1,1.6-1.4.5.5,1,.9,1.5,1.4-.5.4-1,.8-1.5,1.2-.5-.4-1-.8-1.6-1.2Z"/>
          <path class="cls-1" d="M65.3,27.3c-.6.4-1,.6-1.3.9-.3-.4-.6-.8-.7-1.2,0-.2.6-.8.8-.7.4,0,.7.5,1.2,1h0Z"/>
          <path class="cls-1" d="M64,52c-.3-.7-.8-1.1-.7-1.5,0-.3.7-.6,1.1-.7.2,0,.7.6.6.9,0,.4-.5.7-1,1.3Z"/>
          <path class="cls-1" d="M92.8,50.5c-.6.5-1,1-1.3.9-.3,0-.7-.6-.9-1,0-.1.5-.8.8-.8.4,0,.8.4,1.4.8h0Z"/>
          <path class="cls-1" d="M91.6,25.9c.4.6.9,1,.8,1.4,0,.3-.6.6-1,.9-.3-.4-.8-.7-.8-1,0-.3.5-.7,1-1.2h0Z"/>
        </g>
      </g>
    </g>
  </g>
</svg>